<svg width="386" height="72" viewBox="0 0 386 72" fill="none" xmlns="http://www.w3.org/2000/svg">
<rect width="386" height="72" rx="4" fill="white"/>
<path d="M172.864 59V29.6H181.152V35.984H181.432C181.581 35.1627 181.843 34.3787 182.216 33.632C182.589 32.848 183.075 32.1573 183.672 31.56C184.307 30.9627 185.053 30.496 185.912 30.16C186.771 29.7867 187.779 29.6 188.936 29.6H190.392V37.328H188.32C185.893 37.328 184.083 37.6453 182.888 38.28C181.731 38.9147 181.152 40.0907 181.152 41.808V59H172.864ZM199.649 26.464C197.969 26.464 196.737 26.0907 195.953 25.344C195.206 24.56 194.833 23.5707 194.833 22.376V21.144C194.833 19.9493 195.206 18.9787 195.953 18.232C196.737 17.448 197.969 17.056 199.649 17.056C201.329 17.056 202.542 17.448 203.289 18.232C204.073 18.9787 204.465 19.9493 204.465 21.144V22.376C204.465 23.5707 204.073 24.56 203.289 25.344C202.542 26.0907 201.329 26.464 199.649 26.464ZM195.505 29.6H203.793V59H195.505V29.6ZM229.56 54.072H229.28C229.056 54.856 228.701 55.6027 228.216 56.312C227.731 56.984 227.133 57.5813 226.424 58.104C225.752 58.5893 224.968 58.9627 224.072 59.224C223.213 59.5227 222.317 59.672 221.384 59.672C217.651 59.672 214.832 58.3653 212.928 55.752C211.024 53.1013 210.072 49.2747 210.072 44.272C210.072 39.2693 211.024 35.4613 212.928 32.848C214.832 30.2347 217.651 28.928 221.384 28.928C223.288 28.928 224.968 29.4507 226.424 30.496C227.917 31.5413 228.869 32.8853 229.28 34.528H229.56V17.56H237.848V59H229.56V54.072ZM224.128 52.952C225.696 52.952 226.984 52.5787 227.992 51.832C229.037 51.048 229.56 49.984 229.56 48.64V39.96C229.56 38.616 229.037 37.5707 227.992 36.824C226.984 36.04 225.696 35.648 224.128 35.648C222.56 35.648 221.253 36.208 220.208 37.328C219.2 38.4107 218.696 39.8853 218.696 41.752V46.848C218.696 48.7147 219.2 50.208 220.208 51.328C221.253 52.4107 222.56 52.952 224.128 52.952ZM255.566 59.672C252.729 59.672 250.34 59.224 248.398 58.328C246.457 57.3947 244.721 56.088 243.19 54.408L248.062 49.48C249.108 50.6373 250.265 51.552 251.534 52.224C252.804 52.896 254.241 53.232 255.846 53.232C257.489 53.232 258.628 52.9893 259.262 52.504C259.897 51.9813 260.214 51.2907 260.214 50.432C260.214 49.0507 259.225 48.2293 257.246 47.968L254.054 47.576C247.446 46.7547 244.142 43.7307 244.142 38.504C244.142 37.0853 244.404 35.7973 244.926 34.64C245.486 33.4453 246.252 32.4373 247.222 31.616C248.23 30.7573 249.425 30.104 250.806 29.656C252.225 29.1707 253.812 28.928 255.566 28.928C257.097 28.928 258.441 29.04 259.598 29.264C260.793 29.4507 261.838 29.7493 262.734 30.16C263.668 30.5333 264.508 31.0187 265.254 31.616C266.038 32.176 266.804 32.8107 267.55 33.52L262.79 38.392C261.857 37.4587 260.793 36.7307 259.598 36.208C258.441 35.648 257.246 35.368 256.014 35.368C254.596 35.368 253.588 35.592 252.99 36.04C252.393 36.488 252.094 37.0853 252.094 37.832C252.094 38.616 252.3 39.232 252.71 39.68C253.158 40.0907 253.98 40.3893 255.174 40.576L258.478 41.024C264.937 41.8827 268.166 44.832 268.166 49.872C268.166 51.2907 267.868 52.5973 267.27 53.792C266.673 54.9867 265.814 56.032 264.694 56.928C263.612 57.7867 262.286 58.4587 260.718 58.944C259.188 59.4293 257.47 59.672 255.566 59.672Z" fill="#FB7185"/>
<rect x="119" y="49" width="46" height="10" rx="1" fill="black"/>
<rect x="143" y="37" width="22" height="10" rx="1" fill="black"/>
<rect x="119" y="25" width="10" height="22" rx="1" fill="black"/>
<rect x="119" y="13" width="46" height="10" rx="1" fill="black"/>
</svg>
