<svg width="1201" height="224" viewBox="0 0 1201 224" fill="none" xmlns="http://www.w3.org/2000/svg">
<rect x="0.99707" width="1200" height="223.695" rx="4" fill="white"/>
<path d="M539.245 179.013V92.083H563.748V110.959H564.576C565.017 108.531 565.79 106.213 566.894 104.005C567.997 101.687 569.432 99.6445 571.198 97.8783C573.075 96.1121 575.282 94.7323 577.821 93.7388C580.359 92.6349 583.339 92.083 586.761 92.083H591.065V114.933H584.94C577.765 114.933 572.412 115.871 568.88 117.748C565.459 119.625 563.748 123.102 563.748 128.18V179.013H539.245Z" fill="#FB7185"/>
<path d="M618.432 82.8104C613.465 82.8104 609.823 81.7065 607.505 79.4988C605.298 77.1807 604.194 74.2554 604.194 70.723V67.0802C604.194 63.5478 605.298 60.6777 607.505 58.47C609.823 56.1519 613.465 54.9928 618.432 54.9928C623.399 54.9928 626.986 56.1519 629.193 58.47C631.511 60.6777 632.67 63.5478 632.67 67.0802V70.723C632.67 74.2554 631.511 77.1807 629.193 79.4988C626.986 81.7065 623.399 82.8104 618.432 82.8104ZM606.181 92.083H630.683V179.013H606.181V92.083Z" fill="#FB7185"/>
<path d="M706.863 164.442H706.035C705.373 166.76 704.325 168.968 702.89 171.065C701.455 173.052 699.689 174.818 697.592 176.364C695.605 177.799 693.287 178.903 690.638 179.675C688.1 180.558 685.451 181 682.691 181C671.654 181 663.321 177.136 657.692 169.409C652.063 161.572 649.248 150.257 649.248 135.465C649.248 120.673 652.063 109.414 657.692 101.687C663.321 93.9595 671.654 90.096 682.691 90.096C688.32 90.096 693.287 91.6414 697.592 94.7323C702.007 97.8231 704.821 101.797 706.035 106.654H706.863V56.483H731.366V179.013H706.863V164.442ZM690.804 161.13C695.439 161.13 699.247 160.026 702.227 157.819C705.318 155.501 706.863 152.354 706.863 148.381V122.715C706.863 118.742 705.318 115.651 702.227 113.443C699.247 111.125 695.439 109.966 690.804 109.966C686.168 109.966 682.305 111.622 679.215 114.933C676.234 118.134 674.744 122.495 674.744 128.014V143.082C674.744 148.601 676.234 153.017 679.215 156.328C682.305 159.53 686.168 161.13 690.804 161.13Z" fill="#FB7185"/>
<path d="M783.749 181C775.361 181 768.297 179.675 762.557 177.026C756.818 174.266 751.685 170.403 747.16 165.435L761.564 150.864C764.654 154.286 768.076 156.991 771.829 158.978C775.581 160.965 779.831 161.958 784.577 161.958C789.433 161.958 792.8 161.241 794.676 159.806C796.552 158.26 797.49 156.218 797.49 153.679C797.49 149.595 794.566 147.166 788.716 146.394L779.279 145.234C759.743 142.806 749.975 133.865 749.975 118.41C749.975 114.216 750.747 110.407 752.293 106.985C753.948 103.453 756.211 100.472 759.081 98.0439C762.061 95.505 765.593 93.5732 769.676 92.2485C773.871 90.8135 778.561 90.096 783.749 90.096C788.274 90.096 792.248 90.4272 795.669 91.0895C799.201 91.6414 802.292 92.5245 804.941 93.7388C807.7 94.8426 810.183 96.2777 812.391 98.0439C814.709 99.6997 816.971 101.576 819.179 103.674L805.106 118.079C802.347 115.32 799.201 113.167 795.669 111.622C792.248 109.966 788.716 109.138 785.073 109.138C780.879 109.138 777.899 109.8 776.133 111.125C774.367 112.449 773.484 114.216 773.484 116.423C773.484 118.742 774.091 120.563 775.305 121.888C776.63 123.102 779.058 123.985 782.59 124.537L792.358 125.862C811.453 128.4 821 137.121 821 152.023C821 156.218 820.117 160.082 818.351 163.614C816.585 167.146 814.046 170.237 810.735 172.887C807.534 175.425 803.616 177.412 798.98 178.847C794.455 180.282 789.378 181 783.749 181Z" fill="#FB7185"/>
<path d="M380 152.402C380 150.769 381.324 149.445 382.956 149.445H513.039C514.672 149.445 515.996 150.769 515.996 152.402V176.056C515.996 177.689 514.672 179.013 513.039 179.013H382.956C381.324 179.013 380 177.689 380 176.056V152.402Z" fill="black"/>
<path d="M450.954 116.92C450.954 115.287 452.278 113.963 453.911 113.963H513.039C514.672 113.963 515.996 115.287 515.996 116.92V140.575C515.996 142.208 514.672 143.531 513.039 143.531H453.911C452.278 143.531 450.954 142.208 450.954 140.575V116.92Z" fill="black"/>
<path d="M380 81.4385C380 79.8055 381.324 78.4817 382.956 78.4817H406.608C408.241 78.4817 409.564 79.8055 409.564 81.4385V140.575C409.564 142.208 408.241 143.531 406.608 143.531H382.956C381.324 143.531 380 142.208 380 140.575V81.4385Z" fill="black"/>
<path d="M380 45.9568C380 44.3238 381.324 43 382.956 43H513.039C514.672 43 515.996 44.3238 515.996 45.9568V69.6112C515.996 71.2442 514.672 72.568 513.039 72.568H382.956C381.324 72.568 380 71.2442 380 69.6112V45.9568Z" fill="black"/>
</svg>
