<svg width="1280" height="320" viewBox="0 0 1280 320" fill="none" xmlns="http://www.w3.org/2000/svg">
<rect width="1280" height="320" rx="12" fill="white"/>
<path d="M572 155.587C572 153.966 573.314 152.652 574.935 152.652H704.065C705.686 152.652 707 153.966 707 155.587V179.065C707 180.686 705.686 182 704.065 182H574.935C573.314 182 572 180.686 572 179.065V155.587Z" fill="black"/>
<path d="M642.435 120.37C642.435 118.749 643.749 117.435 645.37 117.435H704.065C705.686 117.435 707 118.749 707 120.37V143.848C707 145.469 705.686 146.783 704.065 146.783H645.37C643.749 146.783 642.435 145.469 642.435 143.848V120.37Z" fill="black"/>
<path d="M572 49.9348C572 48.3139 573.314 47 574.935 47H598.413C600.034 47 601.348 48.3139 601.348 49.9348V143.848C601.348 145.469 600.034 146.783 598.413 146.783H574.935C573.314 146.783 572 145.469 572 143.848V49.9348Z" fill="black"/>
<path d="M607.217 49.9348C607.217 48.3139 608.531 47 610.152 47H704.065C705.686 47 707 48.3139 707 49.9348V73.413C707 75.0339 705.686 76.3478 704.065 76.3478H610.152C608.531 76.3478 607.217 75.0339 607.217 73.413V49.9348Z" fill="black"/>
<path d="M201.848 227.072V272H190.904V245.056L180.856 272H172.024L161.912 244.992V272H150.968V227.072H163.896L176.504 258.176L188.984 227.072H201.848ZM207.542 254.08C207.542 250.411 208.225 247.189 209.59 244.416C210.998 241.643 212.897 239.509 215.286 238.016C217.675 236.523 220.342 235.776 223.286 235.776C225.803 235.776 228.001 236.288 229.878 237.312C231.798 238.336 233.27 239.68 234.294 241.344V236.288H245.238V272H234.294V266.944C233.227 268.608 231.734 269.952 229.814 270.976C227.937 272 225.739 272.512 223.222 272.512C220.321 272.512 217.675 271.765 215.286 270.272C212.897 268.736 210.998 266.581 209.59 263.808C208.225 260.992 207.542 257.749 207.542 254.08ZM234.294 254.144C234.294 251.413 233.526 249.259 231.99 247.68C230.497 246.101 228.662 245.312 226.486 245.312C224.31 245.312 222.454 246.101 220.918 247.68C219.425 249.216 218.678 251.349 218.678 254.08C218.678 256.811 219.425 258.987 220.918 260.608C222.454 262.187 224.31 262.976 226.486 262.976C228.662 262.976 230.497 262.187 231.99 260.608C233.526 259.029 234.294 256.875 234.294 254.144ZM274.98 272L264.1 257.024V272H253.156V224.64H264.1V250.816L274.916 236.288H288.42L273.572 254.208L288.548 272H274.98ZM326.382 253.568C326.382 254.592 326.318 255.659 326.19 256.768H301.422C301.593 258.987 302.297 260.693 303.534 261.888C304.814 263.04 306.371 263.616 308.206 263.616C310.937 263.616 312.835 262.464 313.902 260.16H325.55C324.953 262.507 323.865 264.619 322.286 266.496C320.75 268.373 318.809 269.845 316.462 270.912C314.115 271.979 311.491 272.512 308.59 272.512C305.091 272.512 301.977 271.765 299.246 270.272C296.515 268.779 294.382 266.645 292.846 263.872C291.31 261.099 290.542 257.856 290.542 254.144C290.542 250.432 291.289 247.189 292.782 244.416C294.318 241.643 296.451 239.509 299.182 238.016C301.913 236.523 305.049 235.776 308.59 235.776C312.046 235.776 315.118 236.501 317.806 237.952C320.494 239.403 322.585 241.472 324.078 244.16C325.614 246.848 326.382 249.984 326.382 253.568ZM315.182 250.688C315.182 248.811 314.542 247.317 313.262 246.208C311.982 245.099 310.382 244.544 308.462 244.544C306.627 244.544 305.07 245.077 303.79 246.144C302.553 247.211 301.785 248.725 301.486 250.688H315.182ZM360.246 272.512C357.131 272.512 354.358 271.979 351.926 270.912C349.494 269.845 347.574 268.395 346.166 266.56C344.758 264.683 343.969 262.592 343.798 260.288H354.614C354.742 261.525 355.318 262.528 356.342 263.296C357.366 264.064 358.625 264.448 360.118 264.448C361.483 264.448 362.529 264.192 363.254 263.68C364.022 263.125 364.406 262.421 364.406 261.568C364.406 260.544 363.873 259.797 362.806 259.328C361.739 258.816 360.011 258.261 357.622 257.664C355.062 257.067 352.929 256.448 351.222 255.808C349.515 255.125 348.043 254.08 346.806 252.672C345.569 251.221 344.95 249.28 344.95 246.848C344.95 244.8 345.505 242.944 346.614 241.28C347.766 239.573 349.43 238.229 351.606 237.248C353.825 236.267 356.449 235.776 359.478 235.776C363.958 235.776 367.478 236.885 370.038 239.104C372.641 241.323 374.134 244.267 374.518 247.936H364.406C364.235 246.699 363.681 245.717 362.742 244.992C361.846 244.267 360.651 243.904 359.158 243.904C357.878 243.904 356.897 244.16 356.214 244.672C355.531 245.141 355.19 245.803 355.19 246.656C355.19 247.68 355.723 248.448 356.79 248.96C357.899 249.472 359.606 249.984 361.91 250.496C364.555 251.179 366.71 251.861 368.374 252.544C370.038 253.184 371.489 254.251 372.726 255.744C374.006 257.195 374.667 259.157 374.71 261.632C374.71 263.723 374.113 265.6 372.918 267.264C371.766 268.885 370.081 270.165 367.862 271.104C365.686 272.043 363.147 272.512 360.246 272.512ZM415.069 253.568C415.069 254.592 415.006 255.659 414.878 256.768H390.11C390.28 258.987 390.984 260.693 392.222 261.888C393.502 263.04 395.059 263.616 396.894 263.616C399.624 263.616 401.523 262.464 402.59 260.16H414.238C413.64 262.507 412.552 264.619 410.974 266.496C409.438 268.373 407.496 269.845 405.15 270.912C402.803 271.979 400.179 272.512 397.278 272.512C393.779 272.512 390.664 271.765 387.934 270.272C385.203 268.779 383.07 266.645 381.534 263.872C379.998 261.099 379.23 257.856 379.23 254.144C379.23 250.432 379.976 247.189 381.47 244.416C383.006 241.643 385.139 239.509 387.87 238.016C390.6 236.523 393.736 235.776 397.278 235.776C400.734 235.776 403.806 236.501 406.494 237.952C409.182 239.403 411.272 241.472 412.766 244.16C414.302 246.848 415.069 249.984 415.069 253.568ZM403.87 250.688C403.87 248.811 403.23 247.317 401.95 246.208C400.67 245.099 399.07 244.544 397.15 244.544C395.315 244.544 393.758 245.077 392.478 246.144C391.24 247.211 390.472 248.725 390.174 250.688H403.87ZM431.787 242.24C433.067 240.277 434.667 238.741 436.587 237.632C438.507 236.48 440.64 235.904 442.987 235.904V247.488H439.979C437.248 247.488 435.2 248.085 433.835 249.28C432.47 250.432 431.787 252.48 431.787 255.424V272H420.843V236.288H431.787V242.24ZM464.282 261.76L472.026 236.288H483.674L471.002 272H457.498L444.826 236.288H456.538L464.282 261.76ZM493.785 232.576C491.865 232.576 490.286 232.021 489.049 230.912C487.854 229.76 487.257 228.352 487.257 226.688C487.257 224.981 487.854 223.573 489.049 222.464C490.286 221.312 491.865 220.736 493.785 220.736C495.662 220.736 497.198 221.312 498.393 222.464C499.63 223.573 500.249 224.981 500.249 226.688C500.249 228.352 499.63 229.76 498.393 230.912C497.198 232.021 495.662 232.576 493.785 232.576ZM499.225 236.288V272H488.281V236.288H499.225ZM504.98 254.144C504.98 250.432 505.726 247.189 507.22 244.416C508.756 241.643 510.868 239.509 513.556 238.016C516.286 236.523 519.401 235.776 522.9 235.776C527.38 235.776 531.113 236.949 534.1 239.296C537.129 241.643 539.113 244.949 540.052 249.216H528.404C527.422 246.485 525.524 245.12 522.708 245.12C520.702 245.12 519.102 245.909 517.908 247.488C516.713 249.024 516.116 251.243 516.116 254.144C516.116 257.045 516.713 259.285 517.908 260.864C519.102 262.4 520.702 263.168 522.708 263.168C525.524 263.168 527.422 261.803 528.404 259.072H540.052C539.113 263.253 537.129 266.539 534.1 268.928C531.07 271.317 527.337 272.512 522.9 272.512C519.401 272.512 516.286 271.765 513.556 270.272C510.868 268.779 508.756 266.645 507.22 263.872C505.726 261.099 504.98 257.856 504.98 254.144ZM579.569 253.568C579.569 254.592 579.506 255.659 579.378 256.768H554.61C554.78 258.987 555.484 260.693 556.722 261.888C558.002 263.04 559.559 263.616 561.394 263.616C564.124 263.616 566.023 262.464 567.09 260.16H578.738C578.14 262.507 577.052 264.619 575.474 266.496C573.938 268.373 571.996 269.845 569.65 270.912C567.303 271.979 564.679 272.512 561.778 272.512C558.279 272.512 555.164 271.765 552.434 270.272C549.703 268.779 547.57 266.645 546.034 263.872C544.498 261.099 543.73 257.856 543.73 254.144C543.73 250.432 544.476 247.189 545.97 244.416C547.506 241.643 549.639 239.509 552.37 238.016C555.1 236.523 558.236 235.776 561.778 235.776C565.234 235.776 568.306 236.501 570.994 237.952C573.682 239.403 575.772 241.472 577.266 244.16C578.802 246.848 579.569 249.984 579.569 253.568ZM568.37 250.688C568.37 248.811 567.73 247.317 566.45 246.208C565.17 245.099 563.57 244.544 561.65 244.544C559.815 244.544 558.258 245.077 556.978 246.144C555.74 247.211 554.972 248.725 554.674 250.688H568.37ZM599.871 272.512C596.756 272.512 593.983 271.979 591.551 270.912C589.119 269.845 587.199 268.395 585.791 266.56C584.383 264.683 583.594 262.592 583.423 260.288H594.239C594.367 261.525 594.943 262.528 595.967 263.296C596.991 264.064 598.25 264.448 599.743 264.448C601.108 264.448 602.154 264.192 602.879 263.68C603.647 263.125 604.031 262.421 604.031 261.568C604.031 260.544 603.498 259.797 602.431 259.328C601.364 258.816 599.636 258.261 597.247 257.664C594.687 257.067 592.554 256.448 590.847 255.808C589.14 255.125 587.668 254.08 586.431 252.672C585.194 251.221 584.575 249.28 584.575 246.848C584.575 244.8 585.13 242.944 586.239 241.28C587.391 239.573 589.055 238.229 591.231 237.248C593.45 236.267 596.074 235.776 599.103 235.776C603.583 235.776 607.103 236.885 609.663 239.104C612.266 241.323 613.759 244.267 614.143 247.936H604.031C603.86 246.699 603.306 245.717 602.367 244.992C601.471 244.267 600.276 243.904 598.783 243.904C597.503 243.904 596.522 244.16 595.839 244.672C595.156 245.141 594.815 245.803 594.815 246.656C594.815 247.68 595.348 248.448 596.415 248.96C597.524 249.472 599.231 249.984 601.535 250.496C604.18 251.179 606.335 251.861 607.999 252.544C609.663 253.184 611.114 254.251 612.351 255.744C613.631 257.195 614.292 259.157 614.335 261.632C614.335 263.723 613.738 265.6 612.543 267.264C611.391 268.885 609.706 270.165 607.487 271.104C605.311 272.043 602.772 272.512 599.871 272.512ZM656.353 235.904C660.534 235.904 663.862 237.269 666.337 240C668.854 242.688 670.113 246.4 670.113 251.136V272H659.233V252.608C659.233 250.219 658.614 248.363 657.377 247.04C656.14 245.717 654.476 245.056 652.385 245.056C650.294 245.056 648.63 245.717 647.393 247.04C646.156 248.363 645.537 250.219 645.537 252.608V272H634.593V236.288H645.537V241.024C646.646 239.445 648.14 238.208 650.017 237.312C651.894 236.373 654.006 235.904 656.353 235.904ZM711.382 253.568C711.382 254.592 711.318 255.659 711.19 256.768H686.422C686.593 258.987 687.297 260.693 688.534 261.888C689.814 263.04 691.371 263.616 693.206 263.616C695.937 263.616 697.835 262.464 698.902 260.16H710.55C709.953 262.507 708.865 264.619 707.286 266.496C705.75 268.373 703.809 269.845 701.462 270.912C699.115 271.979 696.491 272.512 693.59 272.512C690.091 272.512 686.977 271.765 684.246 270.272C681.515 268.779 679.382 266.645 677.846 263.872C676.31 261.099 675.542 257.856 675.542 254.144C675.542 250.432 676.289 247.189 677.782 244.416C679.318 241.643 681.451 239.509 684.182 238.016C686.913 236.523 690.049 235.776 693.59 235.776C697.046 235.776 700.118 236.501 702.806 237.952C705.494 239.403 707.585 241.472 709.078 244.16C710.614 246.848 711.382 249.984 711.382 253.568ZM700.182 250.688C700.182 248.811 699.542 247.317 698.262 246.208C696.982 245.099 695.382 244.544 693.462 244.544C691.627 244.544 690.07 245.077 688.79 246.144C687.553 247.211 686.785 248.725 686.486 250.688H700.182ZM733.22 261.76L740.964 236.288H752.612L739.94 272H726.436L713.764 236.288H725.476L733.22 261.76ZM790.882 253.568C790.882 254.592 790.818 255.659 790.69 256.768H765.922C766.093 258.987 766.797 260.693 768.034 261.888C769.314 263.04 770.871 263.616 772.706 263.616C775.437 263.616 777.335 262.464 778.402 260.16H790.05C789.453 262.507 788.365 264.619 786.786 266.496C785.25 268.373 783.309 269.845 780.962 270.912C778.615 271.979 775.991 272.512 773.09 272.512C769.591 272.512 766.477 271.765 763.746 270.272C761.015 268.779 758.882 266.645 757.346 263.872C755.81 261.099 755.042 257.856 755.042 254.144C755.042 250.432 755.789 247.189 757.282 244.416C758.818 241.643 760.951 239.509 763.682 238.016C766.413 236.523 769.549 235.776 773.09 235.776C776.546 235.776 779.618 236.501 782.306 237.952C784.994 239.403 787.085 241.472 788.578 244.16C790.114 246.848 790.882 249.984 790.882 253.568ZM779.682 250.688C779.682 248.811 779.042 247.317 777.762 246.208C776.482 245.099 774.882 244.544 772.962 244.544C771.127 244.544 769.57 245.077 768.29 246.144C767.053 247.211 766.285 248.725 765.986 250.688H779.682ZM807.6 242.24C808.88 240.277 810.48 238.741 812.4 237.632C814.32 236.48 816.453 235.904 818.8 235.904V247.488H815.792C813.061 247.488 811.013 248.085 809.648 249.28C808.282 250.432 807.6 252.48 807.6 255.424V272H796.656V236.288H807.6V242.24ZM851.161 235.776C853.678 235.776 855.876 236.288 857.753 237.312C859.673 238.336 861.145 239.68 862.169 241.344V236.288H873.113V271.936C873.113 275.221 872.452 278.187 871.129 280.832C869.849 283.52 867.865 285.653 865.177 287.232C862.532 288.811 859.225 289.6 855.257 289.6C849.966 289.6 845.678 288.341 842.393 285.824C839.108 283.349 837.23 279.979 836.761 275.712H847.577C847.918 277.077 848.729 278.144 850.009 278.912C851.289 279.723 852.868 280.128 854.745 280.128C857.006 280.128 858.798 279.467 860.121 278.144C861.486 276.864 862.169 274.795 862.169 271.936V266.88C861.102 268.544 859.63 269.909 857.753 270.976C855.876 272 853.678 272.512 851.161 272.512C848.217 272.512 845.55 271.765 843.161 270.272C840.772 268.736 838.873 266.581 837.465 263.808C836.1 260.992 835.417 257.749 835.417 254.08C835.417 250.411 836.1 247.189 837.465 244.416C838.873 241.643 840.772 239.509 843.161 238.016C845.55 236.523 848.217 235.776 851.161 235.776ZM862.169 254.144C862.169 251.413 861.401 249.259 859.865 247.68C858.372 246.101 856.537 245.312 854.361 245.312C852.185 245.312 850.329 246.101 848.793 247.68C847.3 249.216 846.553 251.349 846.553 254.08C846.553 256.811 847.3 258.987 848.793 260.608C850.329 262.187 852.185 262.976 854.361 262.976C856.537 262.976 858.372 262.187 859.865 260.608C861.401 259.029 862.169 256.875 862.169 254.144ZM897.287 272.512C893.788 272.512 890.631 271.765 887.815 270.272C885.041 268.779 882.844 266.645 881.223 263.872C879.644 261.099 878.855 257.856 878.855 254.144C878.855 250.475 879.665 247.253 881.286 244.48C882.908 241.664 885.127 239.509 887.943 238.016C890.759 236.523 893.916 235.776 897.415 235.776C900.913 235.776 904.071 236.523 906.887 238.016C909.703 239.509 911.921 241.664 913.543 244.48C915.164 247.253 915.975 250.475 915.975 254.144C915.975 257.813 915.143 261.056 913.479 263.872C911.857 266.645 909.617 268.779 906.759 270.272C903.943 271.765 900.785 272.512 897.287 272.512ZM897.287 263.04C899.377 263.04 901.148 262.272 902.599 260.736C904.092 259.2 904.839 257.003 904.839 254.144C904.839 251.285 904.113 249.088 902.663 247.552C901.255 246.016 899.505 245.248 897.415 245.248C895.281 245.248 893.511 246.016 892.103 247.552C890.695 249.045 889.991 251.243 889.991 254.144C889.991 257.003 890.673 259.2 892.039 260.736C893.447 262.272 895.196 263.04 897.287 263.04ZM933.167 254.08C933.167 250.411 933.85 247.189 935.215 244.416C936.623 241.643 938.522 239.509 940.911 238.016C943.3 236.523 945.967 235.776 948.911 235.776C951.258 235.776 953.391 236.267 955.311 237.248C957.274 238.229 958.81 239.552 959.919 241.216V224.64H970.863V272H959.919V266.88C958.895 268.587 957.423 269.952 955.503 270.976C953.626 272 951.428 272.512 948.911 272.512C945.967 272.512 943.3 271.765 940.911 270.272C938.522 268.736 936.623 266.581 935.215 263.808C933.85 260.992 933.167 257.749 933.167 254.08ZM959.919 254.144C959.919 251.413 959.151 249.259 957.615 247.68C956.122 246.101 954.287 245.312 952.111 245.312C949.935 245.312 948.079 246.101 946.543 247.68C945.05 249.216 944.303 251.349 944.303 254.08C944.303 256.811 945.05 258.987 946.543 260.608C948.079 262.187 949.935 262.976 952.111 262.976C954.287 262.976 956.122 262.187 957.615 260.608C959.151 259.029 959.919 256.875 959.919 254.144ZM995.037 272.512C991.538 272.512 988.381 271.765 985.565 270.272C982.791 268.779 980.594 266.645 978.973 263.872C977.394 261.099 976.605 257.856 976.605 254.144C976.605 250.475 977.415 247.253 979.036 244.48C980.658 241.664 982.877 239.509 985.693 238.016C988.509 236.523 991.666 235.776 995.165 235.776C998.663 235.776 1001.82 236.523 1004.64 238.016C1007.45 239.509 1009.67 241.664 1011.29 244.48C1012.91 247.253 1013.72 250.475 1013.72 254.144C1013.72 257.813 1012.89 261.056 1011.23 263.872C1009.61 266.645 1007.37 268.779 1004.51 270.272C1001.69 271.765 998.535 272.512 995.037 272.512ZM995.037 263.04C997.127 263.04 998.898 262.272 1000.35 260.736C1001.84 259.2 1002.59 257.003 1002.59 254.144C1002.59 251.285 1001.86 249.088 1000.41 247.552C999.005 246.016 997.255 245.248 995.165 245.248C993.031 245.248 991.261 246.016 989.853 247.552C988.445 249.045 987.741 251.243 987.741 254.144C987.741 257.003 988.423 259.2 989.789 260.736C991.197 262.272 992.946 263.04 995.037 263.04ZM1070.79 236.288L1061.13 272H1049.03L1043.4 248.832L1037.58 272H1025.55L1015.82 236.288H1026.76L1031.82 261.824L1037.83 236.288H1049.42L1055.5 261.696L1060.49 236.288H1070.79ZM1096.73 235.904C1100.91 235.904 1104.24 237.269 1106.71 240C1109.23 242.688 1110.49 246.4 1110.49 251.136V272H1099.61V252.608C1099.61 250.219 1098.99 248.363 1097.75 247.04C1096.51 245.717 1094.85 245.056 1092.76 245.056C1090.67 245.056 1089.01 245.717 1087.77 247.04C1086.53 248.363 1085.91 250.219 1085.91 252.608V272H1074.97V236.288H1085.91V241.024C1087.02 239.445 1088.51 238.208 1090.39 237.312C1092.27 236.373 1094.38 235.904 1096.73 235.904ZM1123.21 272.512C1121.29 272.512 1119.71 271.957 1118.48 270.848C1117.28 269.696 1116.69 268.288 1116.69 266.624C1116.69 264.917 1117.28 263.488 1118.48 262.336C1119.71 261.184 1121.29 260.608 1123.21 260.608C1125.09 260.608 1126.63 261.184 1127.82 262.336C1129.06 263.488 1129.68 264.917 1129.68 266.624C1129.68 268.288 1129.06 269.696 1127.82 270.848C1126.63 271.957 1125.09 272.512 1123.21 272.512Z" fill="black"/>
</svg>
